<?xml version="1.0" encoding="utf-8"?>
<!-- Generator: Adobe Illustrator 16.0.0, SVG Export Plug-In . SVG Version: 6.00 Build 0)  -->
<svg version="1.2" baseProfile="tiny" id="Layer_1" xmlns="http://www.w3.org/2000/svg" xmlns:xlink="http://www.w3.org/1999/xlink"
	 x="0px" y="0px"   width="33pt" height="24pt" viewBox="0 0 3000 3000" xml:space="preserve">
<g>
	<path fill="#139CD8" d="M673.496,1081.159c102.525-107.325,272.635-111.21,379.961-8.69c20.06,19.163,37.021,41.308,50.301,65.66
		c41.994-18.773,87.501-28.392,133.497-28.206c183.996,0,333.143,149.152,333.143,333.148
		c0,183.989-149.146,333.142-333.143,333.142c-21.822-0.049-43.59-2.294-64.948-6.717
		c-42.761,76.225-123.285,123.507-210.681,123.674c-36.525,0.148-72.588-8.232-105.291-24.544
		c-59.722,140.041-221.647,205.125-361.67,145.416c-69.606-29.696-123.94-86.696-150.266-157.614
		c-17.308,3.705-34.949,5.549-52.646,5.518c-142.881-1.855-257.215-119.165-255.365-262.039
		c1.163-90.612,49.658-174.019,127.837-219.854c-16.361-37.398-24.687-77.802-24.439-118.621
		c-0.278-164.103,132.52-297.358,296.629-297.637c92.895-0.154,180.507,43.138,236.813,117.006"/>
	<path fill="#FFFFFF" d="M258.581,1520.236c-0.649,1.23-0.39,2.733,0.643,3.68c3.031,1.837,5.512,3.675,8.542,5.512
		c14.14,7.416,29.981,10.998,45.94,10.398c31.237,0,50.809-16.553,50.809-43.46v-0.644c0-25.082-22.046-33.718-42.903-40.423
		l-2.301-0.915c-15.347-4.868-28.757-9.186-28.757-19.571v-0.644c0-8.549,7.992-15.334,20.208-15.334
		c13.911,0.173,27.563,3.736,39.792,10.379c1.268,0.903,3.024,0.619,3.946-0.643v-0.644c0.644-1.837,6.161-15.891,6.161-17.178
		c0.371-1.354-0.093-2.802-1.2-3.68c-13.701-8.122-29.363-12.347-45.291-12.223h-3.037c-28.756,0-48.971,17.177-48.971,42.266v0.644
		c0,26.369,22.051,34.917,42.909,40.429l3.031,1.188c15.346,4.874,28.212,8.549,28.212,19.021v0.644
		c0,9.829-8.548,17.177-22.045,17.177c-14.326,0.13-28.374-3.934-40.429-11.678c-2.48-1.188-3.674-2.475-4.868-3.024
		c-1.268-0.903-3.031-0.619-3.953,0.643v0.638L258.581,1520.236z"/>
	<path fill="#FFFFFF" d="M717.884,1520.236c-0.662,1.23-0.39,2.733,0.637,3.68c3.043,1.837,5.512,3.675,8.549,5.512
		c14.146,7.416,29.975,10.998,45.934,10.398c31.237,0,50.814-16.553,50.814-43.46v-0.644c0-25.082-22.052-33.718-42.915-40.423
		l-2.202-0.915c-15.347-4.868-28.757-9.186-28.757-19.571v-0.644c0-8.549,7.985-15.334,20.214-15.334
		c13.899,0.173,27.558,3.736,39.78,10.379c1.273,0.903,3.03,0.619,3.946-0.643v-0.644c0.643-1.837,6.16-15.891,6.16-17.178
		c0.371-1.354-0.099-2.802-1.199-3.68c-13.701-8.122-29.369-12.341-45.297-12.223h-3.031c-28.757,0-48.965,17.177-48.965,42.266
		v0.644c0,26.369,22.039,34.917,42.902,40.429l3.031,1.188c15.341,4.874,28.206,8.549,28.206,19.021v0.644
		c0,9.829-8.542,17.177-22.051,17.177c-14.32,0.13-28.374-3.934-40.423-11.678c-2.475-1.188-3.675-2.475-4.868-3.024
		c-1.274-0.903-3.037-0.619-3.959,0.643v0.638L717.884,1520.236z"/>
	<path fill="#FFFFFF" d="M1058.646,1439.391c-2.382-8.245-6.347-15.952-11.666-22.688c-5.635-6.434-12.507-11.654-20.215-15.341
		c-18.056-7.336-38.27-7.336-56.319,0c-7.707,3.693-14.586,8.907-20.208,15.341c-5.555,6.581-9.544,14.344-11.679,22.688
		c-4.868,18.458-4.868,37.868,0,56.319c2.388,8.252,6.347,15.953,11.679,22.688c5.622,6.439,12.501,11.647,20.208,15.341
		c18.056,7.336,38.264,7.336,56.319,0c7.831-3.471,14.765-8.729,20.215-15.341c5.548-6.575,9.538-14.332,11.666-22.688
		c2.499-9.191,3.736-18.687,3.674-28.206c0.111-9.532-1.126-19.026-3.674-28.212 M1032.284,1467.51
		c0.624,12.421-2.339,24.768-8.543,35.555c-5.653,8.536-15.557,13.237-25.726,12.223c-10.113,0.644-19.843-3.977-25.726-12.223
		c-11.438-22.293-11.438-48.729,0-71.022c5.635-8.529,15.544-13.237,25.726-12.223c10.107-0.644,19.831,3.978,25.726,12.223
		c6.278,10.757,9.248,23.122,8.543,35.561"/>
	<path fill="#FFFFFF" d="M1273.638,1511.7c-0.314-1.306-1.614-2.122-2.938-1.838l0,0c-3.953,1.597-8.048,2.814-12.217,3.688
		c-4.658,0.724-9.353,1.125-14.06,1.181c-11.109,0.644-21.983-3.353-30.044-11.017c-8.251-10.138-12.21-23.091-11.021-36.104
		c-0.471-12.186,2.975-24.192,9.828-34.274c7.002-8.969,18.05-13.813,29.4-12.866c9.315-0.148,18.612,1.095,27.568,3.681
		c1.337,0.247,2.629-0.545,3.031-1.837c2.475-6.155,4.312-11.023,6.705-17.729c0.354-1.292-0.383-2.641-1.664-3.037l0,0
		c-5.752-2.004-11.69-3.457-17.728-4.317c-6.495-0.761-13.032-1.163-19.571-1.188c-10.07-0.173-20.084,1.701-29.399,5.512
		c-8.178,3.476-15.501,8.703-21.402,15.34c-5.703,6.674-10.07,14.375-12.866,22.695c-3.019,9.099-4.479,18.637-4.317,28.212
		c-0.848,18.879,5.271,37.429,17.184,52.102c13.67,13.818,32.703,20.981,52.089,19.559c12.779,0.148,25.472-2.128,37.404-6.705
		c0.989-0.644,1.459-1.875,1.188-3.025L1273.638,1511.7z"/>
	<path fill="#FFFFFF" d="M1407.784,1434.522c-2.319-7.72-6.303-14.833-11.672-20.857c-4.651-5.555-10.534-9.959-17.178-12.86
		c-8.171-3.309-16.904-4.973-25.725-4.868c-10.083-0.241-20.098,1.64-29.4,5.518c-7.801,3.526-14.709,8.771-20.215,15.334
		c-5.492,6.916-9.637,14.803-12.217,23.252c-2.511,9.186-3.748,18.681-3.68,28.206c-0.211,9.582,1.256,19.126,4.317,28.213
		c2.308,8.529,6.724,16.336,12.866,22.688c6.334,6.272,13.824,11.258,22.051,14.703c10.324,3.983,21.396,5.635,32.438,4.868
		c15.396,0.915,30.768-2.017,44.74-8.549c1.188-0.644,1.844-1.188,0.644-4.305l-6.155-16.553c-0.266-1.076-1.366-1.738-2.449-1.473
		c0,0-0.019,0.013-0.031,0.013h-0.643c-11.586,4.998-24.154,7.274-36.748,6.705c-11.129,0.458-22.04-3.235-30.595-10.379
		c-7.15-8.085-10.868-18.632-10.386-29.413h88.844c1.324,0.056,2.438-0.971,2.486-2.288c0,0,0,0,0-0.007l0,0
		c1.838-0.644,4.868-18.371-1.188-37.942 M1319.678,1452.899c0.822-7.422,3.34-14.561,7.349-20.852
		c5.375-8.566,14.993-13.503,25.076-12.865c10.045-0.402,19.559,4.484,25.095,12.865c3.761,6.322,5.876,13.497,6.148,20.852
		H1319.678z"/>
	<path fill="#FFFFFF" d="M696.747,1434.522c-2.319-7.72-6.309-14.833-11.672-20.857c-4.651-5.555-10.534-9.959-17.178-12.86
		c-8.171-3.309-16.917-4.973-25.726-4.868c-10.082-0.241-20.097,1.64-29.399,5.518c-7.807,3.526-14.716,8.771-20.215,15.334
		c-5.492,6.916-9.643,14.809-12.223,23.252c-2.505,9.186-3.736,18.681-3.674,28.206c-0.211,9.582,1.249,19.126,4.317,28.213
		c2.301,8.529,6.718,16.349,12.866,22.688c6.334,6.272,13.824,11.258,22.045,14.703c10.324,3.983,21.396,5.635,32.432,4.868
		c15.396,0.915,30.772-2.017,44.752-8.549c1.188-0.644,1.837-1.188,0.637-4.305l-6.884-16.367c-0.267-1.083-1.361-1.738-2.45-1.473
		c-0.012,0-0.024,0-0.03,0.007h-0.644c-11.592,4.991-24.148,7.286-36.748,6.705c-11.135,0.464-22.039-3.235-30.601-10.38
		c-7.144-8.084-10.868-18.625-10.379-29.406h88.843c1.317,0.056,2.438-0.971,2.48-2.288l0,0l0,0
		c1.831-0.649,4.875-18.384-1.193-37.948 M607.898,1453.079c0.835-7.416,3.346-14.549,7.348-20.852
		c5.376-8.561,15-13.503,25.089-12.866c10.039-0.396,19.553,4.485,25.083,12.866c3.772,6.322,5.889,13.503,6.167,20.852H607.898z"/>
	<path fill="#FFFFFF" d="M451.806,1448.582c-3.675,0-7.992-0.644-14.054-0.644c-7.448,0.105-14.852,1.126-22.046,3.025
		c-6.594,1.72-12.822,4.62-18.377,8.548c-5.512,3.687-9.953,8.753-12.86,14.703c-3.191,6.26-4.868,13.188-4.874,20.215
		c-0.303,6.996,1.188,13.955,4.317,20.221c2.642,5.586,6.662,10.435,11.673,14.047c5.529,3.866,11.783,6.582,18.377,7.998
		c7.602,1.825,15.421,2.66,23.245,2.475c9.031,0.124,18.056-0.718,26.92-2.475c8.542-1.193,19.571-3.687,22.701-4.311
		c2.097-0.445,4.15-1.064,6.148-1.838c1.312-0.327,2.121-1.633,1.837-2.956v-81.396c1.237-14.498-3.896-28.824-14.054-39.229
		c-11.796-8.833-26.363-13.169-41.072-12.229c-8.035-0.087-16.052,0.748-23.889,2.48c-9.674,1.694-18.989,5.022-27.557,9.835
		c-1.145,0.872-1.416,2.455-0.644,3.674l6.161,17.184c0.26,1.082,1.354,1.744,2.443,1.473c0.013,0,0.024-0.007,0.031-0.007h0.643
		c0.464-0.062,0.885-0.291,1.194-0.644c11.969-5.759,25.026-8.889,38.313-9.191c7.738-0.538,15.464,1.398,22.039,5.518
		c4.874,3.681,7.349,9.186,7.349,21.414v3.675l-14.054-1.194 M416.795,1511.434c-2.017-1.459-3.674-3.346-4.868-5.518
		c-5.492-9.513-3.451-21.587,4.868-28.757c7.54-5.115,16.694-7.311,25.726-6.16c7.992,0.024,15.978,0.644,23.883,1.843v40.429
		c-7.874,1.608-15.854,2.623-23.883,3.031C433.645,1517.645,424.57,1515.912,416.795,1511.434"/>
	<path fill="#FFFFFF" d="M1168.354,1402.642c0.532-1.088,0.081-2.406-1.008-2.938l0,0c-4.77-1.503-9.712-2.332-14.703-2.48
		c-7.751-0.786-15.581,0.482-22.688,3.681c-5.716,2.449-10.757,6.229-14.703,11.022v-11.022c-0.087-1.337-1.15-2.395-2.48-2.48
		h-23.889c-1.33,0.093-2.395,1.15-2.475,2.48v132.854c0.08,1.336,1.145,2.394,2.475,2.474h23.251c1.33-0.093,2.388-1.15,2.475-2.474
		v-66.148c-0.136-7.862,0.885-15.687,3.037-23.246c1.41-4.948,4.182-9.408,7.985-12.865c3.05-3.143,6.842-5.45,11.029-6.705
		c3.798-1.12,7.713-1.732,11.672-1.838c3.31,0.044,6.606,0.445,9.829,1.194c1.49,0.16,2.845-0.903,3.037-2.394l0,0
		c1.831-4.312,6.154-16.534,7.349-19.015"/>
	<path fill="#FFFFFF" d="M949.038,1341.454l-8.542-1.843c-4.027-0.761-8.109-1.163-12.217-1.188
		c-13.813-0.99-27.408,3.915-37.392,13.509c-9.711,11.469-15.872,25.516-17.728,40.423l-1.194,6.154h-20.214
		c-1.46,0.05-2.71,1.058-3.037,2.475l-3.025,18.377c-0.229,1.417,0.706,2.753,2.109,3.037h20.579l-20.214,110.796
		c-1.095,7.516-2.944,14.901-5.512,22.052c-1.299,4.596-3.377,8.957-6.148,12.854c-1.911,2.889-4.72,5.048-7.998,6.154
		c-3.353,1.039-6.872,1.441-10.373,1.2c-1.843,0-4.874-0.644-7.354-0.644c-1.713-0.346-3.353-0.971-4.868-1.837
		c-1.169-0.384-2.437,0.13-3.037,1.188c-0.637,1.844-6.148,16.541-6.698,17.722c-0.669,1.354-0.137,2.981,1.188,3.681
		c2.609,1.008,5.282,1.837,7.998,2.48c4.218,0.946,8.542,1.354,12.865,1.188c7.51,0.136,14.988-1.107,22.052-3.681
		c6.358-2.518,12.024-6.514,16.534-11.672c5.066-5.74,9.031-12.384,11.666-19.571c3.408-9.798,6.086-19.837,7.998-30.031
		l20.215-113.288h29.028c1.46-0.044,2.703-1.058,3.037-2.475l3.03-18.377c0.229-1.417-0.705-2.753-2.108-3.031H900.55
		c0.841-6.903,2.474-13.683,4.874-20.221c1.225-3.538,3.347-6.698,6.154-9.179c2.153-2.035,4.64-3.681,7.349-4.868
		c3.223-0.736,6.52-1.145,9.829-1.194c2.48,0,5.511,0.644,7.349,0.644c1.496,0.13,2.963,0.538,4.317,1.194
		c3.03,0.643,3.03,0,3.674-1.194l6.712-18.371c0.637-1.193-1.2-1.837-1.844-2.48"/>
	<path fill="#FFFFFF" d="M552.494,1533.751c-0.087,1.33-1.145,2.388-2.475,2.48h-23.245c-1.336-0.104-2.394-1.162-2.475-2.48
		V1344.12c0.081-1.336,1.145-2.394,2.475-2.48h22.694c1.33,0.093,2.388,1.151,2.475,2.48v189.811L552.494,1533.751z"/>
	<path fill="#7D888E" d="M1735.149,1355.322c-2.449,2.438-5.029,4.732-7.72,6.891v-36.476H1694.9v283.898h32.616v-104.103
		c46.942,54.03,101.06,48.6,136.064,26.74c42.909-26.555,61.286-83.796,45.946-136.627
		C1885.725,1317.844,1788.247,1291.104,1735.149,1355.322z M1794.766,1516.382c-42.909,0-69.179-36.748-69.544-82.694
		c-0.384-45.935,35.276-83.889,78-84.247c42.711-0.371,76.521,35.733,76.521,84.062c-0.39,46.076-38.066,83.109-84.148,82.694
		h-0.006h-0.91L1794.766,1516.382z"/>
	<path fill="#7D888E" d="M2895.185,1259.595v64.312h68.449v29.399h-66.705c-0.464,7.077-1.182,12.217-1.182,18.378
		c0,33.816,1.274,67.707,0,101.065c-2.028,39.779,18.371,48.235,55.113,40.881c3.111-0.86,6.186-1.862,9.18-3.024
		c7.633,24.891,2.857,32.424-21.959,35.554c-51.717,6.148-76.527-15.717-76.62-67.985v-123.488l-29.399-1.38v-27.568l29.221-1.831
		v-64.312H2895.185L2895.185,1259.595z"/>
	<path fill="#7D888E" d="M2220.519,1542.201h-32.883v-216.464h32.252v49.979c22.688-34.262,47.863-56.134,88.107-54.476v33.718
		c-65.233,12.223-87.545,39.865-87.545,107.498C2220.519,1488.275,2220.519,1514.552,2220.519,1542.201z"/>
	<path fill="#7D888E" d="M2509.849,1235.613v125.876c-57.328-51.364-109.15-55.132-153.063-14.431
		c-43.917,40.707-47.783,113.938-10.657,161.616c14.846,19.231,36.278,32.32,60.18,36.742c41.622,8.369,74.239-7.893,103.366-44.004
		v40.145h31.516v-306.05h-31.329L2509.849,1235.613L2509.849,1235.613z M2430.927,1517.768
		c-42.915-1.015-76.163-38.963-75.241-86.091c0.915-47.134,32.981-82.688,76.528-82.132c43.559,0.545,78.55,37.942,77.919,85.714
		c-0.371,45.482-36.847,83.418-79.106,82.509H2430.927z"/>
	<path fill="#7D888E" d="M2130.772,1390.061c-1.937-33.167-22.324-55.126-54.111-63.674c-39.117-9.928-80.523-5.116-116.326,13.509
		l9.186,26.92c38.499-14.326,58.893-17.178,84.068-14.054c28.299,3.581,53.381,30.594,43.726,62.66l-9.922-2.109
		c-36.748-6.885-73.058-10.937-108.056,5.239c-33.043,14.004-48.451,52.125-34.447,85.162c4.924,11.623,13.126,21.551,23.604,28.584
		c18.29,12.204,40.237,17.679,62.115,15.525c26.375-2.01,51.024-13.93,68.994-33.353l1.559,27.569h30.588
		c0-4.868,1.193-9.186,1.101-12.687C2132.603,1482.764,2133.519,1435.995,2130.772,1390.061z M2068.014,1511.7
		c-26.926,12.965-54.39,14.882-79.657-3.854c-16.664-13.603-19.163-38.141-5.556-54.811c2.487-3.031,5.413-5.679,8.679-7.844
		c30.73-14.202,65.666-16.392,97.937-6.16c5.479,2.511,9.445,7.447,10.75,13.323c4.683,24.811-8.709,49.491-32.078,59.085
		L2068.014,1511.7z"/>
	<path fill="#7D888E" d="M2700.68,1319.131c-63.415-1.058-115.695,49.503-116.74,112.917
		c-1.064,63.421,49.497,115.689,112.917,116.753c63.371,1.052,115.603-49.429,116.74-112.8v-0.736
		c1.169-62.808-48.791-114.68-111.6-115.85c-0.043,0-0.093-0.006-0.13-0.006L2700.68,1319.131z M2700.68,1518.405
		c-44.74,0-80.221-37.757-80.029-85.707c0.18-47.963,34.269-83.697,79.657-83.339c45.391,0.371,79.658,37.491,79.658,84.439
		s-34.824,84.427-79.379,84.612h0.093V1518.405z"/>
</g>
</svg>
